<svg id="&#x421;&#x43B;&#x43E;&#x439;_1" height="512" viewBox="0 0 128 128" width="512" xmlns="http://www.w3.org/2000/svg"><path d="m103 53a24.75 24.75 0 0 0 -7.49 1.15l-9-22.28 5-2.87h8.49a2 2 0 0 0 0-4h-9a2 2 0 0 0 -1 .26l-7 4a2 2 0 0 0 -.86 2.49l1.36 3.35-37.68 7.5-2.15-4.6h2.33a2 2 0 0 0 0-4h-16a2 2 0 0 0 0 4h9.26l2.89 6.2-6.45 11.21a25 25 0 1 0 13.86 27.26l12.23 1.33h.21a1.82 1.82 0 0 0 .46-.06h.15a1.13 1.13 0 0 0 .24-.08l.12-.07.26-.18.11-.1a2.75 2.75 0 0 0 .22-.26v-.06l24.53-36.73 3.72 9.19a25 25 0 1 0 11.19-2.65zm-78 46a21 21 0 1 1 8.69-40.1l-10.42 18.1a2 2 0 0 0 1.52 3l20.78 2.25a21 21 0 0 1 -20.57 16.75zm21-20.74-17.74-1.92 8.89-15.44a21 21 0 0 1 8.85 17.1zm4 .43c0-.23 0-.46 0-.69a25 25 0 0 0 -10.84-20.59l5.06-8.78 14.47 31zm12.33-.76-14.77-31.6 37.44-7.46 1.28 3.13zm40.67 21.07a21 21 0 0 1 -9.68-39.62l7.83 19.37a2 2 0 0 0 3.7-1.5l-7.85-19.37a20.74 20.74 0 0 1 6-.88 21 21 0 0 1 0 42z"/></svg>